<svg xmlns="http://www.w3.org/2000/svg" width="41" height="40" viewBox="0 0 41 40" fill="none">
    <path fill-rule="evenodd" clip-rule="evenodd" d="M28.6729 0H12.6729C6.04543 0 0.672852 5.37258 0.672852 12V28C0.672852 34.6274 6.04543 40 12.6729 40H28.6729C35.3003 40 40.6729 34.6274 40.6729 28V12C40.6729 5.37258 35.3003 0 28.6729 0ZM4.67279 11.9999C4.67279 7.58167 8.25451 3.99995 12.6728 3.99995H28.6728C33.0911 3.99995 36.6728 7.58167 36.6728 11.9999V27.9999C36.6728 32.4182 33.0911 35.9999 28.6728 35.9999H12.6728C8.25451 35.9999 4.67279 32.4182 4.67279 27.9999V11.9999ZM20.6729 30C15.15 30 10.6729 25.5228 10.6729 20C10.6729 14.4772 15.15 10 20.6729 10C26.1957 10 30.6729 14.4772 30.6729 20C30.6729 25.5228 26.1957 30 20.6729 30ZM20.6728 25.9999C23.9865 25.9999 26.6728 23.3137 26.6728 19.9999C26.6728 16.6862 23.9865 13.9999 20.6728 13.9999C17.3591 13.9999 14.6728 16.6862 14.6728 19.9999C14.6728 23.3137 17.3591 25.9999 20.6728 25.9999ZM32.6727 9.9999C32.6727 11.1045 31.7773 11.9999 30.6727 11.9999C29.5682 11.9999 28.6727 11.1045 28.6727 9.9999C28.6727 8.89532 29.5682 7.99989 30.6727 7.99989C31.7773 7.99989 32.6727 8.89532 32.6727 9.9999Z" fill="white"/>
  </svg>