<svg xmlns="http://www.w3.org/2000/svg" width="51" height="48" viewBox="0 0 51 48" fill="none">
    <path fill-rule="evenodd" clip-rule="evenodd" d="M44.6719 9.01655L47.6193 9.34699L46.2944 11.896C45.6483 13.1391 45.0016 14.3821 44.3542 15.6252C44.2774 15.8884 44.1425 16.1192 43.943 16.4197C43.8596 16.5453 43.5748 16.9447 43.5615 16.9639C43.4862 17.0722 43.4306 17.1576 43.3906 17.226V22.003C43.3906 34.227 31.0677 41.9949 19.4302 41.9949C17.0489 41.9949 15.2397 41.8853 13.168 41.4513C9.7586 40.7371 7.22136 39.3173 6.06032 36.836L4.86498 34.2814L7.76993 34.0249C10.3979 33.7929 12.6764 33.3123 14.4262 32.6687C9.62239 31.927 6.93037 29.9016 6.93037 26.0978V24.0978H9.01371C9.47144 24.0978 9.88418 24.0621 10.2532 23.9967C6.64787 21.9273 4.84208 18.6076 4.84208 14.003C4.84169 13.8068 4.84169 13.8068 4.84046 13.5969C4.82692 11.2761 4.95677 10.0359 5.6186 8.45319C6.04275 7.43882 6.65585 6.49977 7.481 5.63934L9.0531 4L10.5816 5.67694C15.6186 11.2032 20.5978 14.5559 25.6816 14.9614C25.7033 9.86209 29.7177 6.00304 35.0569 6.00304C37.546 6.00304 39.8037 6.91003 41.578 8.54545C42.5492 8.73702 43.5805 8.89418 44.6719 9.01655ZM40.0659 12.324L39.4272 12.1852L38.9861 11.7206C37.9197 10.5971 36.5811 10.003 35.0569 10.003C32.009 10.003 29.8481 12.0878 29.8481 15.003C29.8481 15.4795 29.8353 15.7788 29.7735 16.1723C29.5268 17.7423 28.6095 19.003 26.7231 19.003C20.4772 19.003 14.8424 15.7908 9.34765 10.3046C9.06438 11.1312 8.99776 11.9809 9.00706 13.5745C9.00832 13.7877 9.00832 13.7877 9.00875 14.003C9.00875 18.0991 10.7373 20.3395 14.8301 21.5884L16.2824 22.0315V23.4944C16.2824 25.2684 14.5317 26.9383 11.9701 27.6863C13.1444 28.5415 15.5458 29.003 19.431 29.003H21.5143V31.003C21.5143 33.8685 18.0846 36.1121 12.9036 37.2837C14.5932 37.7807 16.843 37.9949 19.4302 37.9949C29.0436 37.9949 39.2239 31.5776 39.2239 22.003V17.003C39.2239 16.4155 39.4013 15.9055 39.6961 15.3752C39.8113 15.1679 39.9382 14.9702 40.0948 14.7447C40.1243 14.7023 40.2337 14.5485 40.3205 14.4256L40.4856 14.1086C40.7532 13.5949 41.0206 13.0812 41.288 12.5675C40.8725 12.492 40.4651 12.4108 40.0659 12.324Z" fill="white"/>
  </svg>